<svg width="91" height="109" viewBox="0 0 91 109" fill="none" xmlns="http://www.w3.org/2000/svg">
<circle cx="45" cy="35" r="35" fill="#FE0002"/>
<path d="M24.9636 29.123L24.4364 28.6898C25.7658 25.3062 26.689 23.5732 28.7864 20.893C28.4193 18.4966 28.1224 17.0354 27.3364 14.107C28.4626 15.4296 29.4884 16.5665 30.4874 17.5722C35.0728 12.0388 37.8985 10.0328 43.6769 9.63102C44.0343 7.93138 44.425 6.08611 44.8682 4C45.428 5.83666 45.919 7.62418 46.4079 9.63102C52.6055 10.4998 55.4478 12.2503 59.5926 17.5722C60.5505 16.5746 61.556 15.4345 62.6636 14.107C62.5508 15.9745 62.1698 17.5305 61.2136 20.7487C63.3783 23.2622 64.3425 24.983 65.5636 28.6898L65.1682 29.2674C66.8921 31.1939 67.6021 32.5705 68.5955 35.3316C68.3713 35.5553 68.1518 35.7728 67.9364 35.9844C69.5591 38.0809 70.2745 39.435 71.2318 42.1176C71.0077 42.3035 70.7882 42.4852 70.5727 42.6631C72.1956 44.3224 72.8823 45.6433 74 48.1818C69.8018 53.1749 66.9635 55.2725 61.2136 58L58.8409 51.3583L56.9955 45.8717C56.9116 47.4409 56.8534 48.2586 56.7318 49.6257C53.7268 52.5944 51.9771 54.0614 48.6909 56.2674H41.1773C37.7947 53.6439 36.0616 52.188 33.3471 49.6257C33.1892 47.6354 33.0983 46.7254 32.9297 45.8717C32.3979 47.6594 31.8188 49.4171 31.1591 51.2682C30.4357 53.2978 29.6155 55.4395 28.6545 57.8556C23.0769 55.1004 20.2787 53.0265 16 48.1818C17.1078 45.6606 17.7765 44.4228 19.2955 42.5508L18.7682 42.1176C19.8655 39.3231 20.5982 37.9893 22.0636 35.9091L21.6682 35.3316C22.5902 32.6668 23.3651 31.3433 24.9636 29.123Z" fill="black"/>
<path d="M24.9636 29.123L24.4364 28.6898C25.7658 25.3062 26.689 23.5732 28.7864 20.893M24.9636 29.123C23.3651 31.3433 22.5902 32.6668 21.6682 35.3316L22.0636 35.9091M24.9636 29.123C28.4324 32.6618 30.7173 34.4181 35.0845 37.3529M28.7864 20.893C28.4193 18.4966 28.1224 17.0354 27.3364 14.107C28.4626 15.4296 29.4884 16.5665 30.4874 17.5722M28.7864 20.893C35.166 27.2983 38.7799 29.8182 45.2636 33.0214C49.5168 30.8079 52.483 28.931 55.5993 26.2353M61.2136 20.7487C62.1698 17.5305 62.5508 15.9745 62.6636 14.107C61.556 15.4345 60.5505 16.5746 59.5926 17.5722M61.2136 20.7487C59.1282 22.9675 57.3403 24.7292 55.5993 26.2353M61.2136 20.7487C63.3783 23.2622 64.3425 24.983 65.5636 28.6898L65.1682 29.2674M22.0636 35.9091C20.5982 37.9894 19.8655 39.3231 18.7682 42.1176L19.2955 42.5508M22.0636 35.9091C26.0161 39.7421 28.476 41.6221 33.3471 44.4278M19.2955 42.5508C17.7765 44.4228 17.1078 45.6606 16 48.1818C20.2787 53.0265 23.0769 55.1004 28.6545 57.8556C29.6155 55.4395 30.4357 53.2978 31.1591 51.2682M19.2955 42.5508C23.7788 46.221 26.3711 48.1389 31.1591 51.2682M34.3227 26.2353C33.2374 27.5728 32.7974 28.6615 32.2136 31L35.7727 34.0321C35.6646 34.5752 35.5574 35.1041 35.4508 35.6203C35.3282 36.2139 35.2063 36.7907 35.0845 37.3529M35.0845 37.3529C34.5223 39.9488 33.9628 42.2344 33.3471 44.4278M33.3471 44.4278C33.2109 44.9128 33.072 45.3933 32.9297 45.8717M31.1591 51.2682C31.8188 49.4171 32.3979 47.6594 32.9297 45.8717M30.4874 17.5722C33.4634 20.5679 36.2018 22.3987 40.65 24.5027C41.7383 18.9743 42.5393 15.0401 43.6769 9.63102M30.4874 17.5722C35.0728 12.0388 37.8985 10.0328 43.6769 9.63102M43.6769 9.63102C44.0343 7.93138 44.425 6.08611 44.8682 4C45.428 5.83666 45.919 7.62418 46.4079 9.63102M46.4079 9.63102C47.303 13.3045 48.1912 17.7129 49.4818 24.5027C53.6915 22.6676 56.3728 20.9253 59.5926 17.5722M46.4079 9.63102C52.6055 10.4998 55.4478 12.2503 59.5926 17.5722M32.9297 45.8717C33.0983 46.7254 33.1892 47.6354 33.3471 49.6257C36.0616 52.188 37.7947 53.6439 41.1773 56.2674M41.1773 56.2674L38.0136 40.6738L45 34.6096C48.8499 37.9032 50.973 39.3514 54.2273 35.9091M41.1773 56.2674H48.6909M54.2273 35.9091L53.9636 34.0321C55.5229 32.6085 56.3346 31.93 57.6545 31C57.1943 28.7044 56.6955 27.7226 55.5993 26.2353M54.2273 35.9091C54.4882 36.2095 54.6554 36.7812 54.8236 37.6417M48.6909 56.2674C49.8009 47.8472 51.0734 43.9897 55.15 39.5187M48.6909 56.2674C51.9771 54.0614 53.7268 52.5944 56.7318 49.6257C56.8534 48.2586 56.9116 47.4409 56.9955 45.8717M55.15 39.5187C55.9402 41.3313 56.3204 42.9525 56.9955 45.8717M55.15 39.5187C55.027 38.7853 54.9251 38.1609 54.8236 37.6417M56.9955 45.8717L58.8409 51.3583M65.1682 29.2674C66.8921 31.1939 67.6021 32.5705 68.5955 35.3316C68.3713 35.5553 68.1518 35.7728 67.9364 35.9844M65.1682 29.2674C61.4105 32.8984 59.1619 34.7542 54.8236 37.6417M56.7318 44.4278C61.4505 41.7505 64.0302 39.8216 67.9364 35.9844M67.9364 35.9844C69.5591 38.0809 70.2745 39.435 71.2318 42.1176C71.0077 42.3035 70.7882 42.4852 70.5727 42.6631M58.8409 51.3583L61.2136 58C66.9635 55.2725 69.8018 53.1749 74 48.1818C72.8823 45.6433 72.1956 44.3224 70.5727 42.6631M58.8409 51.3583C63.6178 48.2345 66.2817 46.2065 70.5727 42.6631M35.2455 28.9786C36.3222 31.3393 37.2167 32.5683 39.3318 34.6096L42.7591 33.5989C39.5576 31.8004 37.9357 30.7883 35.2455 28.9786ZM47.3727 33.5989L50.6682 34.6096C52.6039 32.839 53.5445 31.6114 54.8864 28.9786C52.0697 30.982 50.4126 31.9745 47.3727 33.5989Z" stroke="white" stroke-width="0.5"/>
<path d="M11.9453 85.7031C11.9453 86.1042 11.8932 86.4661 11.7891 86.7891C11.6901 87.1068 11.5573 87.388 11.3906 87.6328C11.224 87.8776 11.0286 88.0859 10.8047 88.2578C10.5807 88.4297 10.349 88.5703 10.1094 88.6797C9.86979 88.7891 9.625 88.8698 9.375 88.9219C9.13021 88.974 8.89844 89 8.67969 89H0.84375V86.9688H8.67969C9.07031 86.9688 9.3724 86.8542 9.58594 86.625C9.80469 86.3958 9.91406 86.0885 9.91406 85.7031C9.91406 85.5156 9.88542 85.3438 9.82812 85.1875C9.77083 85.0312 9.6875 84.8958 9.57812 84.7812C9.47396 84.6667 9.34375 84.5781 9.1875 84.5156C9.03646 84.4531 8.86719 84.4219 8.67969 84.4219H4.00781C3.67969 84.4219 3.32552 84.3646 2.94531 84.25C2.5651 84.1302 2.21094 83.9401 1.88281 83.6797C1.5599 83.4193 1.28906 83.0781 1.07031 82.6562C0.856771 82.2344 0.75 81.7188 0.75 81.1094C0.75 80.5 0.856771 79.987 1.07031 79.5703C1.28906 79.1484 1.5599 78.8073 1.88281 78.5469C2.21094 78.2812 2.5651 78.0911 2.94531 77.9766C3.32552 77.8568 3.67969 77.7969 4.00781 77.7969H10.9219V79.8281H4.00781C3.6224 79.8281 3.32031 79.9453 3.10156 80.1797C2.88802 80.4141 2.78125 80.724 2.78125 81.1094C2.78125 81.5 2.88802 81.8099 3.10156 82.0391C3.32031 82.263 3.6224 82.375 4.00781 82.375H8.67969H8.69531C8.91406 82.3802 9.14583 82.4115 9.39062 82.4688C9.63542 82.5208 9.8776 82.6042 10.1172 82.7188C10.362 82.8333 10.5938 82.9792 10.8125 83.1562C11.0312 83.3281 11.224 83.5365 11.3906 83.7812C11.5625 84.026 11.6979 84.3073 11.7969 84.625C11.8958 84.9427 11.9453 85.3021 11.9453 85.7031ZM15.6797 82.375H22.8125V77.7969H24.8438V89H22.8125V84.4219H15.6797V89H13.6484V77.7969H15.6797V82.375ZM38.4219 81.5625C38.4219 82.026 38.3646 82.4401 38.25 82.8047C38.1354 83.1693 37.9792 83.4922 37.7812 83.7734C37.5885 84.0495 37.3646 84.2865 37.1094 84.4844C36.8542 84.6823 36.5859 84.8464 36.3047 84.9766C36.0286 85.1016 35.7474 85.1927 35.4609 85.25C35.1797 85.3073 34.9141 85.3359 34.6641 85.3359L38.9062 89H35.7656L31.5312 85.3359H30.0703V83.3047H34.6641C34.9193 83.2839 35.151 83.2318 35.3594 83.1484C35.5729 83.0599 35.7552 82.9427 35.9062 82.7969C36.0625 82.651 36.1823 82.4766 36.2656 82.2734C36.349 82.0651 36.3906 81.8281 36.3906 81.5625V80.2812C36.3906 80.1667 36.375 80.0807 36.3438 80.0234C36.3177 79.9609 36.2812 79.9167 36.2344 79.8906C36.1927 79.8594 36.1458 79.8411 36.0938 79.8359C36.0469 79.8307 36.0026 79.8281 35.9609 79.8281H29.2578V89H27.2266V78.8203C27.2266 78.6797 27.2526 78.5469 27.3047 78.4219C27.3568 78.2969 27.4271 78.1875 27.5156 78.0938C27.6094 78 27.7188 77.9271 27.8438 77.875C27.9688 77.8229 28.1042 77.7969 28.25 77.7969H35.9609C36.4141 77.7969 36.7969 77.8802 37.1094 78.0469C37.4219 78.2083 37.6745 78.4141 37.8672 78.6641C38.0651 78.9089 38.2057 79.1745 38.2891 79.4609C38.3776 79.7474 38.4219 80.0156 38.4219 80.2656V81.5625ZM49.6719 84.4219H43.2578V82.375H49.6719V84.4219ZM50.5859 89H43.2578C42.9766 89 42.6693 88.9505 42.3359 88.8516C42.0026 88.7526 41.6927 88.5911 41.4062 88.3672C41.125 88.138 40.888 87.8438 40.6953 87.4844C40.5078 87.1198 40.4141 86.6745 40.4141 86.1484V78.8203C40.4141 78.6797 40.4401 78.5469 40.4922 78.4219C40.5443 78.2969 40.6146 78.1875 40.7031 78.0938C40.7969 78 40.9062 77.9271 41.0312 77.875C41.1562 77.8229 41.2917 77.7969 41.4375 77.7969H50.5859V79.8281H42.4453V86.1484C42.4453 86.4141 42.5156 86.6172 42.6562 86.7578C42.7969 86.8984 43.0026 86.9688 43.2734 86.9688H50.5859V89ZM63.7344 84.3125C63.7344 84.9948 63.6146 85.6224 63.375 86.1953C63.1406 86.7682 62.8151 87.263 62.3984 87.6797C61.9818 88.0911 61.487 88.4141 60.9141 88.6484C60.3411 88.8828 59.7188 89 59.0469 89H53.5625C53.4167 89 53.2812 88.974 53.1562 88.9219C53.0312 88.8698 52.9219 88.7995 52.8281 88.7109C52.7396 88.6172 52.6693 88.5078 52.6172 88.3828C52.5651 88.2578 52.5391 88.1224 52.5391 87.9766V78.8203C52.5391 78.6797 52.5651 78.5469 52.6172 78.4219C52.6693 78.2969 52.7396 78.1875 52.8281 78.0938C52.9219 78 53.0312 77.9271 53.1562 77.875C53.2812 77.8229 53.4167 77.7969 53.5625 77.7969H59.0469C59.7188 77.7969 60.3411 77.9141 60.9141 78.1484C61.487 78.3828 61.9818 78.7083 62.3984 79.125C62.8151 79.5365 63.1406 80.0312 63.375 80.6094C63.6146 81.1823 63.7344 81.8073 63.7344 82.4844V84.3125ZM61.7031 82.4844C61.7031 82.0885 61.638 81.7266 61.5078 81.3984C61.3828 81.0703 61.2031 80.7917 60.9688 80.5625C60.7344 80.3281 60.4531 80.1484 60.125 80.0234C59.8021 79.8932 59.4427 79.8281 59.0469 79.8281H54.5703V86.9688H59.0469C59.4427 86.9688 59.8021 86.9062 60.125 86.7812C60.4531 86.651 60.7344 86.4714 60.9688 86.2422C61.2031 86.0078 61.3828 85.7292 61.5078 85.4062C61.638 85.0781 61.7031 84.7135 61.7031 84.3125V82.4844ZM74.9375 84.4219H68.5234V82.375H74.9375V84.4219ZM75.8516 89H68.5234C68.2422 89 67.9349 88.9505 67.6016 88.8516C67.2682 88.7526 66.9583 88.5911 66.6719 88.3672C66.3906 88.138 66.1536 87.8438 65.9609 87.4844C65.7734 87.1198 65.6797 86.6745 65.6797 86.1484V78.8203C65.6797 78.6797 65.7057 78.5469 65.7578 78.4219C65.8099 78.2969 65.8802 78.1875 65.9688 78.0938C66.0625 78 66.1719 77.9271 66.2969 77.875C66.4219 77.8229 66.5573 77.7969 66.7031 77.7969H75.8516V79.8281H67.7109V86.1484C67.7109 86.4141 67.7812 86.6172 67.9219 86.7578C68.0625 86.8984 68.2682 86.9688 68.5391 86.9688H75.8516V89ZM89.0156 81.5625C89.0156 82.026 88.9583 82.4401 88.8438 82.8047C88.7292 83.1693 88.5729 83.4922 88.375 83.7734C88.1823 84.0495 87.9583 84.2865 87.7031 84.4844C87.4479 84.6823 87.1797 84.8464 86.8984 84.9766C86.6224 85.1016 86.3411 85.1927 86.0547 85.25C85.7734 85.3073 85.5078 85.3359 85.2578 85.3359L89.5 89H86.3594L82.125 85.3359H80.6641V83.3047H85.2578C85.513 83.2839 85.7448 83.2318 85.9531 83.1484C86.1667 83.0599 86.349 82.9427 86.5 82.7969C86.6562 82.651 86.776 82.4766 86.8594 82.2734C86.9427 82.0651 86.9844 81.8281 86.9844 81.5625V80.2812C86.9844 80.1667 86.9688 80.0807 86.9375 80.0234C86.9115 79.9609 86.875 79.9167 86.8281 79.8906C86.7865 79.8594 86.7396 79.8411 86.6875 79.8359C86.6406 79.8307 86.5964 79.8281 86.5547 79.8281H79.8516V89H77.8203V78.8203C77.8203 78.6797 77.8464 78.5469 77.8984 78.4219C77.9505 78.2969 78.0208 78.1875 78.1094 78.0938C78.2031 78 78.3125 77.9271 78.4375 77.875C78.5625 77.8229 78.6979 77.7969 78.8438 77.7969H86.5547C87.0078 77.7969 87.3906 77.8802 87.7031 78.0469C88.0156 78.2083 88.2682 78.4141 88.4609 78.6641C88.6589 78.9089 88.7995 79.1745 88.8828 79.4609C88.9714 79.7474 89.0156 80.0156 89.0156 80.2656V81.5625Z" fill="#FAF7F7"/>
<path d="M24.9113 101.281C24.9113 101.42 24.9026 101.602 24.8853 101.827C24.8766 102.052 24.868 102.247 24.8593 102.412H24.9113C24.9633 102.343 25.0413 102.243 25.1453 102.113C25.2493 101.983 25.3533 101.853 25.4573 101.723C25.57 101.584 25.6653 101.472 25.7433 101.385L27.9663 99.032H29.3053L26.4843 102.009L29.5003 106H28.1223L25.7043 102.75L24.9113 103.439V106H23.7803V96.12H24.9113V101.281ZM31.8686 99.032V106H30.7246V99.032H31.8686ZM31.3096 96.419C31.483 96.419 31.6346 96.4797 31.7646 96.601C31.9033 96.7137 31.9726 96.8957 31.9726 97.147C31.9726 97.3897 31.9033 97.5717 31.7646 97.693C31.6346 97.8143 31.483 97.875 31.3096 97.875C31.119 97.875 30.9586 97.8143 30.8286 97.693C30.6986 97.5717 30.6336 97.3897 30.6336 97.147C30.6336 96.8957 30.6986 96.7137 30.8286 96.601C30.9586 96.4797 31.119 96.419 31.3096 96.419ZM36.4032 105.194C36.5765 105.194 36.7542 105.181 36.9362 105.155C37.1182 105.12 37.2655 105.086 37.3782 105.051V105.922C37.2569 105.983 37.0835 106.03 36.8582 106.065C36.6329 106.108 36.4162 106.13 36.2082 106.13C35.8442 106.13 35.5062 106.069 35.1942 105.948C34.8909 105.818 34.6439 105.597 34.4532 105.285C34.2625 104.973 34.1672 104.535 34.1672 103.972V99.916H33.1792V99.37L34.1802 98.915L34.6352 97.433H35.3112V99.032H37.3262V99.916H35.3112V103.946C35.3112 104.371 35.4109 104.687 35.6102 104.895C35.8182 105.094 36.0825 105.194 36.4032 105.194ZM41.5685 106.13C40.9531 106.13 40.4028 106.004 39.9175 105.753C39.4408 105.502 39.0638 105.112 38.7865 104.583C38.5178 104.054 38.3835 103.378 38.3835 102.555C38.3835 101.697 38.5265 100.999 38.8125 100.462C39.0985 99.9247 39.4841 99.5303 39.9695 99.279C40.4635 99.0277 41.0225 98.902 41.6465 98.902C42.0018 98.902 42.3441 98.941 42.6735 99.019C43.0028 99.0883 43.2715 99.175 43.4795 99.279L43.1285 100.228C42.9205 100.15 42.6778 100.076 42.4005 100.007C42.1231 99.9377 41.8631 99.903 41.6205 99.903C41.1525 99.903 40.7668 100.003 40.4635 100.202C40.1601 100.401 39.9348 100.696 39.7875 101.086C39.6401 101.476 39.5665 101.961 39.5665 102.542C39.5665 103.097 39.6401 103.569 39.7875 103.959C39.9348 104.349 40.1558 104.644 40.4505 104.843C40.7451 105.042 41.1135 105.142 41.5555 105.142C41.9368 105.142 42.2705 105.103 42.5565 105.025C42.8511 104.947 43.1198 104.852 43.3625 104.739V105.753C43.1285 105.874 42.8685 105.965 42.5825 106.026C42.3051 106.095 41.9671 106.13 41.5685 106.13ZM46.1636 99.019C46.1636 99.1837 46.1549 99.3527 46.1376 99.526C46.1289 99.6993 46.1159 99.8553 46.0986 99.994H46.1766C46.3239 99.7513 46.5102 99.552 46.7356 99.396C46.9609 99.24 47.2122 99.123 47.4896 99.045C47.7669 98.9583 48.0529 98.915 48.3476 98.915C48.9109 98.915 49.3789 99.006 49.7516 99.188C50.1329 99.3613 50.4189 99.6343 50.6096 100.007C50.8002 100.38 50.8956 100.865 50.8956 101.463V106H49.7646V101.541C49.7646 100.978 49.6389 100.557 49.3876 100.28C49.1362 100.003 48.7419 99.864 48.2046 99.864C47.6846 99.864 47.2772 99.9637 46.9826 100.163C46.6879 100.354 46.4756 100.64 46.3456 101.021C46.2242 101.394 46.1636 101.853 46.1636 102.399V106H45.0196V96.12H46.1636V99.019ZM55.7467 98.902C56.3447 98.902 56.856 99.032 57.2807 99.292C57.714 99.552 58.0434 99.9203 58.2687 100.397C58.5027 100.865 58.6197 101.415 58.6197 102.048V102.737H53.8487C53.866 103.526 54.0654 104.128 54.4467 104.544C54.8367 104.951 55.3784 105.155 56.0717 105.155C56.5137 105.155 56.9037 105.116 57.2417 105.038C57.5884 104.951 57.9437 104.83 58.3077 104.674V105.675C57.9524 105.831 57.6014 105.944 57.2547 106.013C56.908 106.091 56.4964 106.13 56.0197 106.13C55.361 106.13 54.776 105.996 54.2647 105.727C53.762 105.458 53.3677 105.06 53.0817 104.531C52.8044 103.994 52.6657 103.339 52.6657 102.568C52.6657 101.805 52.7914 101.151 53.0427 100.605C53.3027 100.059 53.6624 99.6387 54.1217 99.344C54.5897 99.0493 55.1314 98.902 55.7467 98.902ZM55.7337 99.838C55.1877 99.838 54.7544 100.016 54.4337 100.371C54.1217 100.718 53.9354 101.203 53.8747 101.827H57.4237C57.4237 101.428 57.363 101.082 57.2417 100.787C57.1204 100.492 56.934 100.263 56.6827 100.098C56.44 99.9247 56.1237 99.838 55.7337 99.838ZM63.7476 98.902C64.5796 98.902 65.2079 99.1057 65.6326 99.513C66.0572 99.9117 66.2696 100.562 66.2696 101.463V106H65.1386V101.541C65.1386 100.978 65.0129 100.557 64.7616 100.28C64.5102 100.003 64.1159 99.864 63.5786 99.864C62.8072 99.864 62.2742 100.081 61.9796 100.514C61.6849 100.947 61.5376 101.571 61.5376 102.386V106H60.3936V99.032H61.3166L61.4856 99.981H61.5506C61.7066 99.7383 61.8972 99.539 62.1226 99.383C62.3566 99.2183 62.6122 99.097 62.8896 99.019C63.1669 98.941 63.4529 98.902 63.7476 98.902Z" fill="#FAF7F7"/>
</svg>
